<svg width="20" height="20" viewBox="0 0 20 20" fill="none" xmlns="http://www.w3.org/2000/svg">
<path d="M19.9989 14.9741V17.9851C19.9996 18.2644 19.942 18.5407 19.8299 18.7966C19.7179 19.0524 19.5537 19.282 19.3479 19.4708C19.1422 19.6597 18.8993 19.8036 18.6348 19.8933C18.3704 19.9831 18.0901 20.0167 17.8119 19.9921C14.7183 19.6568 11.7463 18.6016 9.1339 16.9111C6.70489 15.3711 4.64479 13.315 3.0999 10.8891C1.40051 8.27204 0.342522 5.29096 0.0118967 2.18811C-0.0129469 1.91039 0.0202928 1.63054 0.1095 1.36636C0.198708 1.10219 0.341929 0.859473 0.530052 0.653667C0.718175 0.447861 0.947079 0.283468 1.2022 0.170949C1.45732 0.0584305 1.73307 0.000250019 2.0119 0.000109879H5.0259C5.51356 -0.00498704 5.98645 0.167392 6.35643 0.485126C6.72641 0.80286 6.96826 1.24427 7.0369 1.72711C7.16299 2.69053 7.39782 3.63656 7.7369 4.54711C7.87357 4.90604 7.904 5.29674 7.82455 5.6725C7.74511 6.04827 7.55915 6.39321 7.2889 6.66611L6.0119 7.93911C7.44457 10.4529 9.52922 12.5334 12.0459 13.9611L13.3219 12.6861C13.5956 12.4161 13.9408 12.23 14.3168 12.1499C14.6929 12.0699 15.0839 12.0991 15.4439 12.2341C16.3565 12.5731 17.3046 12.8079 18.2699 12.9341C18.758 13.0022 19.204 13.2474 19.523 13.623C19.842 13.9986 20.0117 14.4784 19.9999 14.9711L19.9989 14.9741Z" fill="white"/>
</svg>
