<svg width="38" height="38" viewBox="0 0 38 38" fill="none" xmlns="http://www.w3.org/2000/svg">
<path d="M36 18.0561C36.0065 20.5492 35.424 23.0087 34.3 25.2341C32.9672 27.9008 30.9183 30.1437 28.3828 31.7118C25.8472 33.2798 22.9252 34.1109 19.944 34.1121C17.4508 34.1186 14.9914 33.5361 12.766 32.4121L2 36.0001L5.589 25.2331C4.46495 23.0077 3.88247 20.5482 3.889 18.0551C3.89033 15.074 4.72155 12.1522 6.28955 9.61686C7.85756 7.08151 10.1004 5.03276 12.767 3.70005C14.9924 2.57601 17.4518 1.99352 19.945 2.00005H20.889C24.826 2.21733 28.5446 3.87913 31.3328 6.66728C34.1209 9.45543 35.7827 13.174 36 17.1111V18.0561Z" stroke="white" stroke-width="2.5" stroke-linecap="round" stroke-linejoin="round"/>
</svg>
