<?xml version="1.0" encoding="utf-8"?>
<!-- Generator: Adobe Illustrator 24.0.0, SVG Export Plug-In . SVG Version: 6.00 Build 0)  -->
<svg version="1.1" id="Layer_1" xmlns="http://www.w3.org/2000/svg" xmlns:xlink="http://www.w3.org/1999/xlink" x="0px" y="0px"
	 viewBox="0 0 28 25.8" style="enable-background:new 0 0 28 25.8;" xml:space="preserve">
<style type="text/css">
	.st0{opacity:0.5;}
	.st1{fill:#102C55;}
</style>
<g class="st0">
	<path class="st1" d="M26.9,18.1c0.4,0,0.8-0.4,0.8-0.8c0-2.3-1.9-4.1-4.2-4.1h-0.8l-1-4.6c0.9-0.4,1.6-1.3,1.6-2.4
		c0-1.4-1.2-2.6-2.6-2.6h-3.7c-0.4,0-0.8,0.4-0.8,0.8v1h-2c-0.4,0-0.8,0.4-0.8,0.8s0.4,0.8,0.8,0.8h2v1c0,0.4,0.4,0.8,0.8,0.8h0.4
		c-0.7,0.8-1.1,1.8-1.1,2.9v4.6c0,0,0,0,0,0h-3.3c0,0,0,0,0,0l-0.9-3c0.7-0.2,1.2-0.8,1.2-1.6c0-1.8-1.5-3.3-3.3-3.3H2.7
		c-1.4,0-2.5,1.1-2.5,2.5c0,1.3,0.9,2.3,2.1,2.5c-1.3,1.1-2.1,2.8-2.1,4.7v2.5c0,0.4,0.4,0.8,0.8,0.8h0.7c0.4,1.9,2,3.3,4,3.3
		s3.6-1.4,4-3.3h9.8c0.4,1.9,2,3.3,4,3.3c2.3,0,4.1-1.8,4.1-4.1C27.7,19.6,27.4,18.7,26.9,18.1L26.9,18.1z M25.9,16.4h-1.8
		c-0.2,0-0.3,0-0.5,0c-0.3,0-0.6,0-0.8,0.1v-1.8h0.6C24.6,14.7,25.6,15.4,25.9,16.4L25.9,16.4z M17.7,5.1h2.9c0.6,0,1,0.5,1,1
		s-0.4,1-1,1h-2.9V5.1z M12.9,17.9h3.3c0.9,0,1.7-0.7,1.7-1.7v-4.6c0-1.4,1-2.6,2.3-2.8l1.1,5.2v3.2c-0.8,0.6-1.4,1.5-1.6,2.5h-8
		c-0.4-2.9-2.8-5.1-5.7-5.1c-1.3,0-2.5,0.4-3.5,1.2c0.8-1.5,2.3-2.5,4.1-2.5h3.9l1,3.4C11.5,17.4,12.2,17.9,12.9,17.9L12.9,17.9z
		 M1.9,19.7c0.1-0.9,0.5-1.6,1.1-2.2c0.7-0.8,1.8-1.2,2.9-1.2c2.1,0,3.8,1.5,4.1,3.4L1.9,19.7L1.9,19.7z M2.7,11.8
		c-0.5,0-0.9-0.4-0.9-0.9S2.2,10,2.7,10h7.3c0.9,0,1.7,0.8,1.7,1.7c0,0-0.1,0.1-0.2,0c-0.7,0-0.5,0-0.6,0
		C9.9,11.8,2.7,11.8,2.7,11.8L2.7,11.8z M5.8,23c-1.1,0-2-0.7-2.3-1.7h4.7C7.8,22.3,6.9,23,5.8,23z M23.6,23c-1.4,0-2.5-1.1-2.5-2.5
		s1.1-2.5,2.5-2.5c1.4,0,2.5,1.1,2.5,2.5S25,23,23.6,23z"/>
	<ellipse class="st1" cx="23.6" cy="20.5" rx="0.8" ry="0.8"/>
	<path class="st1" d="M1,6.1h7.2c0.4,0,0.8-0.4,0.8-0.8c0-0.4-0.4-0.8-0.8-0.8H1c-0.4,0-0.8,0.4-0.8,0.8C0.2,5.7,0.6,6.1,1,6.1z"/>
	<path class="st1" d="M3.7,2.8H11c0.4,0,0.8-0.4,0.8-0.8S11.4,1.1,11,1.1H3.7C3.3,1.1,2.9,1.5,2.9,2S3.3,2.8,3.7,2.8z"/>
</g>
</svg>
