<svg width="34" height="44" viewBox="0 0 34 44" fill="none" xmlns="http://www.w3.org/2000/svg">
<path d="M32 36.3931V32.6431C32 30.6539 31.2098 28.7463 29.8033 27.3398C28.3968 25.9332 26.4891 25.1431 24.5 25.1431H9.5C7.51088 25.1431 5.60322 25.9332 4.1967 27.3398C2.79018 28.7463 2 30.6539 2 32.6431V36.3931" stroke="white" stroke-width="2.5" stroke-linecap="round" stroke-linejoin="round"/>
<path d="M24.5 9.5C24.5 10.9834 24.0601 12.4334 23.236 13.6668C22.4119 14.9001 21.2406 15.8614 19.8701 16.4291C18.4997 16.9968 16.9917 17.1453 15.5368 16.8559C14.082 16.5665 12.7456 15.8522 11.6967 14.8033C10.6478 13.7544 9.9335 12.418 9.64411 10.9632C9.35472 9.50832 9.50325 8.00032 10.0709 6.62987C10.6386 5.25943 11.5999 4.08809 12.8332 3.26398C14.0666 2.43987 15.5166 2 17 2C18.9891 2 20.8968 2.79018 22.3033 4.1967C23.7098 5.60322 24.5 7.51088 24.5 9.5Z" stroke="white" stroke-width="2.5" stroke-linecap="round" stroke-linejoin="round"/>
<path d="M23 39.479C23 42.84 11 42.84 11 39.479C11 37.8877 11.6321 36.3616 12.7574 35.2364C13.8826 34.1111 15.4087 33.479 17 33.479C18.5913 33.479 20.1174 34.1111 21.2426 35.2364C22.3679 36.3616 23 37.8877 23 39.479V39.479Z" stroke="white" stroke-width="2.5" stroke-linecap="round" stroke-linejoin="round"/>
</svg>
