<?xml version="1.0" encoding="utf-8"?>
<!-- Generator: Adobe Illustrator 24.0.0, SVG Export Plug-In . SVG Version: 6.00 Build 0)  -->
<svg version="1.1" id="Capa_1" xmlns="http://www.w3.org/2000/svg" xmlns:xlink="http://www.w3.org/1999/xlink" x="0px" y="0px"
	 viewBox="0 0 20 28" style="enable-background:new 0 0 20 28;" xml:space="preserve">
<style type="text/css">
	.st0{opacity:0.5;}
	.st1{fill:#102C55;}
</style>
<g class="st0">
	<path class="st1" d="M10,0.1L10,0.1C4.6,0.1,0.2,4,0.2,8.8c0,3.2,1.6,7.3,4.8,12.4c2.4,3.7,4.7,6.6,4.8,6.6
		c0.1,0.1,0.2,0.1,0.3,0.1c0,0,0,0,0,0c0.1,0,0.2-0.1,0.3-0.1c0,0,2.4-3.2,4.7-7.1c3.2-5.3,4.8-9.3,4.8-11.9C19.8,4,15.4,0.1,10,0.1
		z M15.9,9.6c0,3.1-2.6,5.7-5.9,5.7c-3.3,0-5.9-2.6-5.9-5.7S6.8,3.9,10,3.9C13.3,3.9,15.9,6.5,15.9,9.6z"/>
</g>
</svg>
