<svg width="24" height="27" viewBox="0 0 24 27" fill="none" xmlns="http://www.w3.org/2000/svg">
<g opacity="0.5">
<path opacity="0.5" d="M22 25V22C22 18.686 19.761 16 17 16H7C4.239 16 2 18.686 2 22V25" stroke="#102C55" stroke-width="2.5" stroke-linecap="round" stroke-linejoin="round"/>
<path opacity="0.5" d="M16 6C16 6.79113 15.7654 7.56448 15.3259 8.22228C14.8864 8.88008 14.2616 9.39277 13.5307 9.69552C12.7998 9.99827 11.9956 10.0775 11.2196 9.92314C10.4437 9.7688 9.73099 9.38784 9.17158 8.82843C8.61217 8.26902 8.2312 7.55629 8.07686 6.78036C7.92252 6.00444 8.00173 5.20017 8.30448 4.46927C8.60723 3.73836 9.11993 3.11365 9.77772 2.67412C10.4355 2.2346 11.2089 2 12 2C13.0609 2 14.0783 2.42143 14.8284 3.17157C15.5786 3.92172 16 4.93913 16 6Z" stroke="#102C55" stroke-width="2.5" stroke-linecap="round" stroke-linejoin="round"/>
</g>
</svg>
