<?xml version="1.0" encoding="utf-8"?>
<!-- Generator: Adobe Illustrator 24.0.0, SVG Export Plug-In . SVG Version: 6.00 Build 0)  -->
<svg version="1.1" id="Layer_1" xmlns="http://www.w3.org/2000/svg" xmlns:xlink="http://www.w3.org/1999/xlink" x="0px" y="0px"
	 viewBox="0 0 20 27" style="enable-background:new 0 0 20 27;" xml:space="preserve">
<style type="text/css">
	.st0{opacity:0.5;fill:#102C55;}
</style>
<path class="st0" d="M9.8,12.6c1.7,0,3.2-0.6,4.4-1.8C15.4,9.6,16,8.1,16,6.4c0-1.7-0.6-3.2-1.8-4.4C13,0.9,11.5,0.2,9.8,0.2
	c-1.7,0-3.2,0.6-4.4,1.8S3.6,4.7,3.6,6.4c0,1.7,0.6,3.2,1.8,4.4C6.7,12,8.1,12.6,9.8,12.6z M6.5,3.1c0.9-0.9,2-1.4,3.3-1.4
	c1.3,0,2.4,0.4,3.3,1.4c0.9,0.9,1.4,2,1.4,3.3c0,1.3-0.4,2.4-1.4,3.3c-0.9,0.9-2,1.4-3.3,1.4c-1.3,0-2.4-0.4-3.3-1.4
	c-0.9-0.9-1.4-2-1.4-3.3C5.2,5.1,5.6,4,6.5,3.1z"/>
<path class="st0" d="M19.8,20.7c0-0.5-0.1-1.1-0.2-1.7c-0.1-0.6-0.2-1.2-0.4-1.7c-0.2-0.5-0.4-1.1-0.6-1.6c-0.3-0.5-0.6-1-0.9-1.4
	c-0.4-0.4-0.8-0.7-1.3-0.9c-0.5-0.2-1.1-0.3-1.7-0.3c-0.2,0-0.5,0.1-0.9,0.4c-0.3,0.2-0.6,0.4-1,0.7c-0.3,0.2-0.7,0.4-1.3,0.6
	c-0.5,0.2-1,0.3-1.5,0.3c-0.5,0-1-0.1-1.5-0.3c-0.5-0.2-0.9-0.4-1.3-0.6c-0.4-0.3-0.7-0.5-1-0.7c-0.5-0.3-0.7-0.4-0.9-0.4
	c-0.6,0-1.2,0.1-1.7,0.3c-0.5,0.2-1,0.6-1.3,0.9c-0.4,0.4-0.7,0.8-0.9,1.4c-0.3,0.5-0.5,1-0.6,1.6c-0.1,0.5-0.3,1.1-0.4,1.7
	c-0.1,0.6-0.2,1.2-0.2,1.7c0,0.5,0,1,0,1.6c0,1.4,0.4,2.5,1.2,3.4c0.8,0.8,1.8,1.2,3,1.2h11.4c1.2,0,2.3-0.4,3-1.2
	c0.8-0.8,1.2-2,1.2-3.4C19.9,21.7,19.9,21.2,19.8,20.7z M17.8,24.5c-0.5,0.5-1.2,0.8-2.1,0.8H4.2c-0.9,0-1.6-0.3-2.1-0.8
	c-0.5-0.5-0.7-1.3-0.7-2.2c0-0.5,0-1,0-1.5c0-0.5,0.1-1,0.2-1.5c0.1-0.5,0.2-1,0.3-1.5c0.1-0.4,0.3-0.9,0.5-1.3
	c0.2-0.4,0.4-0.7,0.7-1c0.2-0.3,0.5-0.5,0.9-0.6c0.3-0.1,0.7-0.2,1.1-0.2c0,0,0.1,0.1,0.3,0.2c0.3,0.2,0.6,0.4,1,0.7
	c0.4,0.3,0.9,0.6,1.6,0.8c0.6,0.2,1.3,0.4,2,0.4c0.7,0,1.3-0.1,2-0.4c0.6-0.2,1.2-0.5,1.6-0.8c0.4-0.3,0.7-0.5,1-0.7
	c0.1-0.1,0.2-0.2,0.3-0.2c0.4,0,0.8,0.1,1.1,0.2c0.4,0.2,0.7,0.4,0.9,0.6c0.3,0.3,0.5,0.6,0.7,1c0.2,0.4,0.4,0.8,0.5,1.3
	c0.1,0.5,0.2,1,0.3,1.5c0.1,0.5,0.1,1.1,0.2,1.5v0c0,0.5,0,1,0,1.5C18.5,23.2,18.3,24,17.8,24.5z"/>
</svg>
