<svg width="38" height="35" viewBox="0 0 38 35" fill="none" xmlns="http://www.w3.org/2000/svg">
<path d="M13.1813 3.00048L2.99951 8.80049V32.0005L13.1813 26.2005L24.8177 32.0005L34.9995 26.2005V3.00048L24.8177 8.80049L13.1813 3.00048ZM34.9995 0.500488C35.4336 0.500462 35.8675 0.613384 36.2558 0.839058C37.0258 1.28658 37.4995 2.10992 37.4995 3.00048V26.2005C37.4995 27.0988 37.0175 27.9281 36.2369 28.3728L26.0551 34.1728C25.6723 34.3908 25.2453 34.5005 24.8176 34.5005C24.4361 34.5005 24.0542 34.4133 23.7025 34.2379L13.2598 29.0329L4.23693 34.1728C3.85332 34.3913 3.4263 34.5005 2.99952 34.5005C2.56539 34.5005 2.13151 34.3876 1.74324 34.1619C0.97327 33.7144 0.499512 32.8911 0.499512 32.0005V8.80049C0.499512 7.90214 0.98151 7.07287 1.76209 6.62821L11.9439 0.828205C12.3267 0.610149 12.7538 0.500488 13.1814 0.500488C13.5629 0.500488 13.9448 0.587696 14.2966 0.763027L24.7392 5.96803L33.7621 0.828205C34.1457 0.609688 34.5727 0.500511 34.9995 0.500488Z" fill="white"/>
<path d="M13.1807 3V27.667" stroke="white" stroke-width="2.5" stroke-linecap="round" stroke-linejoin="round"/>
<path d="M24.8179 7.33398V32.001" stroke="white" stroke-width="2.5" stroke-linecap="round" stroke-linejoin="round"/>
</svg>
