<svg width="36" height="36" viewBox="0 0 36 36" fill="none" xmlns="http://www.w3.org/2000/svg">
<path d="M11.012 18.191L15.77 13.538L3.96296 2C3.34111 2.60564 2.84686 3.3297 2.50939 4.12945C2.17191 4.92921 1.99805 5.78846 1.99805 6.6565C1.99805 7.52454 2.17191 8.38379 2.50939 9.18355C2.84686 9.9833 3.34111 10.7074 3.96296 11.313L11.008 18.191H11.012ZM23.412 17.94C25.984 19.108 29.363 17.057 31.625 14.634C33.887 12.211 35.101 7.048 32.625 4.634C30.17 2.234 25.563 2.824 22.335 5.967C19.662 8.583 18.821 12.121 20.015 14.639L3.61496 30.693L6.98996 33.983L17.569 23.648L28.132 34L31.507 30.71L20.945 20.359L23.416 17.938L23.412 17.94Z" stroke="white" stroke-width="2.5" stroke-linecap="round" stroke-linejoin="round"/>
</svg>
