<svg width="22" height="23" viewBox="0 0 22 23" fill="none" xmlns="http://www.w3.org/2000/svg">
<path opacity="0.5" d="M6.63284 11.619L9.60684 8.709L2.22984 1.5C1.84081 1.87835 1.53158 2.33086 1.32043 2.83076C1.10928 3.33067 1.00049 3.86783 1.00049 4.4105C1.00049 4.95317 1.10928 5.49033 1.32043 5.99024C1.53158 6.49015 1.84081 6.94265 2.22984 7.321L6.62984 11.621L6.63284 11.619ZM14.3848 11.462C15.9928 12.192 18.1038 10.91 19.5178 9.396C20.9318 7.882 21.6908 4.655 20.1458 3.143C18.6008 1.631 15.7328 2.012 13.7148 3.976C12.0438 5.611 11.5148 7.822 12.2648 9.396L2.00884 19.438L4.11884 21.494L10.7308 15.035L17.3308 21.504L19.4408 19.448L12.8408 12.979L14.3858 11.467L14.3848 11.462Z" stroke="#102C55" stroke-width="2" stroke-linecap="round" stroke-linejoin="round"/>
</svg>
