<svg width="38" height="38" viewBox="0 0 38 38" fill="none" xmlns="http://www.w3.org/2000/svg">
<path d="M23.625 19C23.625 19.9147 23.3538 20.8089 22.8455 21.5695C22.3373 22.3301 21.615 22.9229 20.7699 23.2729C19.9248 23.623 18.9949 23.7146 18.0977 23.5361C17.2005 23.3577 16.3765 22.9172 15.7296 22.2704C15.0828 21.6236 14.6423 20.7995 14.4639 19.9023C14.2854 19.0051 14.377 18.0752 14.7271 17.2301C15.0771 16.385 15.6699 15.6627 16.4305 15.1545C17.1911 14.6463 18.0853 14.375 19 14.375C20.2266 14.375 21.403 14.8623 22.2704 15.7296C23.1377 16.597 23.625 17.7734 23.625 19V19Z" stroke="white" stroke-width="2.5" stroke-linecap="round" stroke-linejoin="round"/>
<path d="M30.436 23.636C30.2302 24.1022 30.1688 24.6193 30.2597 25.1207C30.3506 25.6221 30.5897 26.0847 30.946 26.449L31.039 26.542C31.3303 26.8283 31.562 27.1694 31.7207 27.5458C31.8794 27.9221 31.9621 28.3261 31.9638 28.7345C31.9656 29.1429 31.8864 29.5477 31.731 29.9253C31.5755 30.303 31.3467 30.6461 31.0579 30.9349C30.7691 31.2237 30.426 31.4525 30.0483 31.608C29.6707 31.7634 29.2659 31.8426 28.8575 31.8408C28.4491 31.8391 28.0451 31.7564 27.6688 31.5977C27.2924 31.439 26.9513 31.2073 26.665 30.916L26.572 30.823C26.2106 30.4735 25.7546 30.2377 25.2606 30.1447C24.7665 30.0517 24.256 30.1056 23.7923 30.2997C23.3285 30.4938 22.9318 30.8196 22.6513 31.2368C22.3708 31.654 22.2188 32.1443 22.214 32.647V32.91C22.214 33.7298 21.8883 34.516 21.3087 35.0957C20.729 35.6753 19.9428 36.001 19.123 36.001C18.3032 36.001 17.517 35.6753 16.9373 35.0957C16.3577 34.516 16.032 33.7298 16.032 32.91V32.771C16.0201 32.2594 15.8546 31.7632 15.5569 31.347C15.2593 30.9307 14.8433 30.6137 14.363 30.437C13.8968 30.2312 13.3797 30.1698 12.8783 30.2607C12.3769 30.3516 11.9143 30.5907 11.55 30.947L11.458 31.039C11.1717 31.3303 10.8306 31.562 10.4542 31.7207C10.0779 31.8794 9.6739 31.9621 9.26548 31.9638C8.85706 31.9656 8.45234 31.8864 8.07467 31.731C7.697 31.5755 7.35386 31.3467 7.06506 31.0579C6.77627 30.7691 6.54752 30.426 6.39204 30.0483C6.23656 29.6707 6.15741 29.2659 6.15917 28.8575C6.16093 28.4491 6.24357 28.0451 6.4023 27.6688C6.56103 27.2924 6.79272 26.9513 7.084 26.665L7.177 26.572C7.52618 26.2109 7.76192 25.7554 7.85511 25.2618C7.9483 24.7682 7.89484 24.2581 7.70135 23.7945C7.50787 23.331 7.18282 22.9342 6.76636 22.6533C6.34991 22.3725 5.86029 22.2197 5.358 22.214H5.091C4.27122 22.214 3.48501 21.8883 2.90533 21.3087C2.32566 20.729 2 19.9428 2 19.123C2 18.3032 2.32566 17.517 2.90533 16.9373C3.48501 16.3577 4.27122 16.032 5.091 16.032H5.23C5.74159 16.0201 6.23777 15.8546 6.65402 15.5569C7.07027 15.2593 7.38734 14.8433 7.564 14.363C7.76978 13.8968 7.83118 13.3797 7.74028 12.8783C7.64938 12.3769 7.41034 11.9143 7.054 11.55L6.958 11.458C6.66672 11.1717 6.43503 10.8306 6.2763 10.4542C6.11757 10.0779 6.03493 9.6739 6.03317 9.26548C6.03141 8.85706 6.11056 8.45234 6.26604 8.07467C6.42152 7.697 6.65027 7.35386 6.93906 7.06506C7.22786 6.77627 7.571 6.54752 7.94867 6.39204C8.32634 6.23656 8.73106 6.15741 9.13948 6.15917C9.5479 6.16093 9.95192 6.24357 10.3282 6.4023C10.7046 6.56103 11.0457 6.79272 11.332 7.084L11.425 7.177C11.7893 7.53334 12.2519 7.77238 12.7533 7.86328C13.2547 7.95418 13.7718 7.89278 14.238 7.687H14.362C14.8187 7.49164 15.2083 7.16717 15.4832 6.75343C15.758 6.33968 15.906 5.85469 15.909 5.358V5.091C15.909 4.27122 16.2347 3.48501 16.8143 2.90533C17.394 2.32566 18.1802 2 19 2C19.8198 2 20.606 2.32566 21.1857 2.90533C21.7653 3.48501 22.091 4.27122 22.091 5.091V5.23C22.095 5.73306 22.2465 6.2239 22.5267 6.64171C22.8069 7.05951 23.2035 7.38593 23.6674 7.58053C24.1314 7.77512 24.6422 7.82934 25.1366 7.73646C25.631 7.64358 26.0873 7.40768 26.449 7.058L26.542 6.965C26.8283 6.67372 27.1694 6.44203 27.5458 6.2833C27.9221 6.12457 28.3261 6.04193 28.7345 6.04017C29.1429 6.03841 29.5477 6.11756 29.9253 6.27304C30.303 6.42852 30.6461 6.65727 30.9349 6.94606C31.2237 7.23486 31.4525 7.578 31.608 7.95567C31.7634 8.33334 31.8426 8.73806 31.8408 9.14648C31.8391 9.5549 31.7564 9.95892 31.5977 10.3352C31.439 10.7116 31.2073 11.0527 30.916 11.339L30.823 11.432C30.4667 11.7963 30.2276 12.2589 30.1367 12.7603C30.0458 13.2617 30.1072 13.7788 30.313 14.245V14.369C30.509 14.8261 30.8344 15.2159 31.2491 15.4904C31.6638 15.7649 32.1497 15.9121 32.647 15.914H32.91C33.7298 15.914 34.516 16.2397 35.0957 16.8193C35.6753 17.399 36.001 18.1852 36.001 19.005C36.001 19.8248 35.6753 20.611 35.0957 21.1907C34.516 21.7703 33.7298 22.096 32.91 22.096H32.771C32.2737 22.0979 31.7878 22.2451 31.3731 22.5196C30.9584 22.7941 30.633 23.1839 30.437 23.641L30.436 23.636Z" stroke="white" stroke-width="2.5" stroke-linecap="round" stroke-linejoin="round"/>
</svg>
